<svg xmlns="http://www.w3.org/2000/svg" viewBox="0 0 750 500"><g id="freepik--background-simple--inject-54"><path d="M488.26,402.13c35.25-2.81,71.51-5.11,101.11-24.45a156.75,156.75,0,0,0,63-82.79c7.16-22.49,9-47.41.6-69.46-9.69-25.45-33.3-45.08-60.08-50-23.56-4.32-47.56,2.12-71.05,6.81s-49.07,7.38-70.38-3.55c-20.66-10.6-33.19-31.78-47.53-50.05-33-42-85.9-73.31-138.56-64-35.24,6.19-66,30.13-84.63,60.69s-25.81,67.16-24.84,102.93c1.31,48.37,20.5,100.21,62.9,123.51C218.77,351.74,268,419.69,488.26,402.13Z" style="fill:#ebebeb"></path><path d="M481.38,63.42C463.82,64.6,445.94,83.32,441.62,98s.75,31.21,11.41,42.12,26.23,16.34,41.48,16.21c20-.18,40.92-11.14,47.86-29.9,6.34-17.15-.58-37.57-14.51-49.41s-30.13-16.12-48.14-13" style="fill:#ebebeb"></path></g><g id="freepik--Table--inject-54"><path d="M721,424.56c0,.14-154.12.26-344.19.26S32.6,424.7,32.6,424.56s154.08-.26,344.22-.26S721,424.42,721,424.56Z" style="fill:#263238"></path></g><g id="freepik--Plant--inject-54"><path d="M568.47,446.39c1.1,7,7.41,12.38,14.26,14.32s14.15,1.08,21.15-.19c4-.72,8.56-2.06,10-5.84,1.12-2.91-.18-6.29-2.37-8.5s-5.12-3.5-8-4.74" style="fill:#f5f5f5"></path><path d="M639.51,392.43a3.43,3.43,0,0,1,.21-.51l.69-1.46a36.91,36.91,0,0,0,2-5.83c1.33-5.19,1.79-13.12-.18-22.53A121.09,121.09,0,0,0,638.07,347c-1.77-5.37-3.83-11.07-5.51-17.23a66.77,66.77,0,0,1-2.71-19.81c.25-7,2.33-14,4.61-21s4.63-13.79,5.34-20.64A31.5,31.5,0,0,0,636,249.24c-3-5.57-6.82-10.33-9.66-15.26a52.76,52.76,0,0,1-5.81-14.66,54.62,54.62,0,0,1-.37-22.71,42.46,42.46,0,0,1,2.37-8,2.59,2.59,0,0,1-.14.54l-.48,1.53a57.55,57.55,0,0,0-1.47,6A55.23,55.23,0,0,0,621,219.2a52.8,52.8,0,0,0,5.82,14.48c2.84,4.87,6.66,9.61,9.74,15.24a32.14,32.14,0,0,1,3.9,19.46c-.71,7-3.08,13.83-5.35,20.8s-4.33,13.88-4.59,20.77a66.12,66.12,0,0,0,2.65,19.61c1.65,6.13,3.68,11.83,5.43,17.21A121,121,0,0,1,642.75,362c1.91,9.49,1.36,17.49-.06,22.7a33.51,33.51,0,0,1-2.15,5.83c-.32.6-.57,1.07-.75,1.43A2.39,2.39,0,0,1,639.51,392.43Z" style="fill:#263238"></path><path d="M630.21,238.85s-5.77-18.47,4.58-29.28a.64.64,0,0,1,1.1.32C636.44,212.94,637.13,222.23,630.21,238.85Z" style="fill:#FF725E"></path><path d="M633.67,215.72a17.06,17.06,0,0,1-.39,3.41c-.38,2.35-.83,5.1-1.32,8.14s-.92,5.8-1.29,8.15a19.86,19.86,0,0,1-.61,3.37,13.59,13.59,0,0,1,.1-3.43c.19-2.11.56-5,1.09-8.2s1.07-6.06,1.53-8.12A15.34,15.34,0,0,1,633.67,215.72Z" style="fill:#263238"></path><path d="M637,282.4s3.53-19,17.74-23.74a.65.65,0,0,1,.83.8C654.62,262.41,650.89,270.94,637,282.4Z" style="fill:#FF725E"></path><path d="M650.86,263.57a16,16,0,0,1-1.93,2.83L644,273l-5,6.59a17.74,17.74,0,0,1-2.11,2.69,14.27,14.27,0,0,1,1.69-3c1.16-1.78,2.84-4.17,4.8-6.74s3.78-4.85,5.15-6.46A16,16,0,0,1,650.86,263.57Z" style="fill:#263238"></path><path d="M633.15,330.11s-2.14-19.22,10.09-27.86a.64.64,0,0,1,1,.52C644.21,305.87,643.12,315.12,633.15,330.11Z" style="fill:#FF725E"></path><path d="M641,308.08a17.55,17.55,0,0,1-1,3.26c-.82,2.24-1.79,4.85-2.85,7.75s-2,5.51-2.82,7.75A17.76,17.76,0,0,1,633,330a14.14,14.14,0,0,1,.76-3.35c.59-2,1.51-4.81,2.63-7.84s2.21-5.74,3.05-7.68A15.27,15.27,0,0,1,641,308.08Z" style="fill:#263238"></path><path d="M643.86,378.11s-1.46-19.29,11.07-27.48a.64.64,0,0,1,1,.55C655.78,354.28,654.36,363.48,643.86,378.11Z" style="fill:#FF725E"></path><path d="M652.45,356.37a16.75,16.75,0,0,1-1.15,3.23c-.9,2.2-2,4.78-3.12,7.63l-3.1,7.64a18.89,18.89,0,0,1-1.36,3.15,14.31,14.31,0,0,1,.88-3.32c.66-2,1.68-4.76,2.91-7.74s2.41-5.66,3.32-7.57A15.54,15.54,0,0,1,652.45,356.37Z" style="fill:#263238"></path><path d="M621.91,222.62s-17.15-9-17.48-23.92a.64.64,0,0,1,1-.55C608,199.91,615,206,621.91,222.62Z" style="fill:#FF725E"></path><path d="M608,203.84a17.87,17.87,0,0,1,2.13,2.68l4.84,6.69,4.85,6.67a18.27,18.27,0,0,1,2,2.81,14.24,14.24,0,0,1-2.35-2.5c-1.36-1.62-3.15-3.94-5-6.56s-3.52-5-4.67-6.82A14.91,14.91,0,0,1,608,203.84Z" style="fill:#263238"></path><path d="M640.33,262.28s-17.67-7.9-18.91-22.82a.64.64,0,0,1,1-.61C625,240.45,632.45,246.08,640.33,262.28Z" style="fill:#FF725E"></path><path d="M625.29,244.38a17,17,0,0,1,2.29,2.54l5.23,6.38,5.25,6.36a18.87,18.87,0,0,1,2.12,2.69,14,14,0,0,1-2.5-2.35c-1.46-1.54-3.39-3.74-5.43-6.24s-3.82-4.82-5.07-6.52A15.48,15.48,0,0,1,625.29,244.38Z" style="fill:#263238"></path><path d="M630.16,306.51s-12.12-15.07-6.44-28.92a.64.64,0,0,1,1.14-.11C626.49,280.12,630.53,288.51,630.16,306.51Z" style="fill:#FF725E"></path><path d="M624.93,283.72a16.83,16.83,0,0,1,.88,3.32c.51,2.32,1.1,5,1.75,8.06s1.27,5.73,1.78,8a18.38,18.38,0,0,1,.66,3.36,14.35,14.35,0,0,1-1.16-3.23c-.59-2-1.31-4.87-2-8s-1.22-6-1.55-8.12A14.93,14.93,0,0,1,624.93,283.72Z" style="fill:#263238"></path><path d="M642.17,358.56s-17.52-8.19-18.51-23.13a.64.64,0,0,1,1-.6C627.25,336.48,634.58,342.24,642.17,358.56Z" style="fill:#FF725E"></path><path d="M627.44,340.41a16.91,16.91,0,0,1,2.25,2.58l5.12,6.47c1.93,2.41,3.66,4.59,5.14,6.45a18.55,18.55,0,0,1,2.08,2.72,14,14,0,0,1-2.46-2.39c-1.43-1.56-3.32-3.8-5.32-6.33s-3.75-4.88-5-6.61A15.11,15.11,0,0,1,627.44,340.41Z" style="fill:#263238"></path><path d="M677.08,282.5a1.11,1.11,0,0,1,0,.43q0,.49,0,1.23c-.05,1.16-.12,2.73-.2,4.69-.23,4.13-.54,9.88-.92,16.75v0c-1.25,7-4.81,14.76-9.6,22.3-3.51,5.55-7.2,10.59-10.37,15.28a108,108,0,0,0-7.78,12.86,55.25,55.25,0,0,0-3.64,9.43c-.3,1.16-.54,2.06-.67,2.67a3.71,3.71,0,0,1-.26.93,5.6,5.6,0,0,1,.12-.95c.09-.63.27-1.55.54-2.72a49.63,49.63,0,0,1,3.45-9.59,103.32,103.32,0,0,1,7.68-13c3.16-4.72,6.82-9.78,10.32-15.3,4.76-7.49,8.31-15.14,9.6-22v0c.48-6.88.89-12.62,1.18-16.74.15-1.95.28-3.52.37-4.68,0-.49.09-.9.13-1.23A1.75,1.75,0,0,1,677.08,282.5Z" style="fill:#263238"></path><path d="M666.65,326.5s7.42-17.87-1.92-29.57a.64.64,0,0,0-1.12.21C662.78,300.13,661.26,309.32,666.65,326.5Z" style="fill:#FF725E"></path><path d="M665.3,303.16a15.56,15.56,0,0,1,.58,3.38c.27,2.1.56,5,.79,8.22s.34,6.15.34,8.27a13.54,13.54,0,0,1-.21,3.42,19.88,19.88,0,0,1-.3-3.41c-.16-2.37-.35-5.15-.55-8.23s-.41-5.85-.58-8.23A16.5,16.5,0,0,1,665.3,303.16Z" style="fill:#263238"></path><g style="opacity:0.30000000000000004"><path d="M666.65,326.5s7.42-17.87-1.92-29.57a.64.64,0,0,0-1.12.21C662.78,300.13,661.26,309.32,666.65,326.5Z"></path></g><path d="M643.66,369.55s6-18.41-4.31-29.32a.64.64,0,0,0-1.1.31C637.67,343.58,636.89,352.86,643.66,369.55Z" style="fill:#FF725E"></path><path d="M640.42,346.4a15.15,15.15,0,0,1,.86,3.32c.43,2.07,1,4.94,1.45,8.13s.84,6.1,1,8.21a14.28,14.28,0,0,1,.07,3.43,18.22,18.22,0,0,1-.58-3.37c-.35-2.35-.76-5.11-1.21-8.16s-.89-5.8-1.24-8.15A16.39,16.39,0,0,1,640.42,346.4Z" style="fill:#263238"></path><g style="opacity:0.30000000000000004"><path d="M643.66,369.55s6-18.41-4.31-29.32a.64.64,0,0,0-1.1.31C637.67,343.58,636.89,352.86,643.66,369.55Z"></path></g><path d="M676.1,304.66s15.85-11.09,14.25-26a.64.64,0,0,0-1.06-.42C687,280.34,680.77,287.27,676.1,304.66Z" style="fill:#FF725E"></path><g style="opacity:0.30000000000000004"><path d="M676.1,304.66s15.85-11.09,14.25-26a.64.64,0,0,0-1.06-.42C687,280.34,680.77,287.27,676.1,304.66Z"></path></g><path d="M687.48,284.24a15.2,15.2,0,0,1-1.31,3.17c-.91,1.91-2.22,4.52-3.75,7.36s-3,5.37-4.15,7.16a15.11,15.11,0,0,1-2,2.78,18.24,18.24,0,0,1,1.57-3c1.14-2.09,2.47-4.54,3.95-7.24l3.93-7.25A17.46,17.46,0,0,1,687.48,284.24Z" style="fill:#263238"></path><path d="M650.05,351.3s19.11-3,24.23-17.05a.63.63,0,0,0-.76-.84C670.54,334.26,661.9,337.74,650.05,351.3Z" style="fill:#FF725E"></path><g style="opacity:0.30000000000000004"><path d="M650.05,351.3s19.11-3,24.23-17.05a.63.63,0,0,0-.76-.84C670.54,334.26,661.9,337.74,650.05,351.3Z"></path></g><path d="M669.26,338a15.44,15.44,0,0,1-2.58,2.26c-1.65,1.32-4,3.09-6.6,5s-5.07,3.5-6.88,4.6a14.36,14.36,0,0,1-3,1.61,18.48,18.48,0,0,1,2.75-2l6.74-4.76,6.72-4.78A16.89,16.89,0,0,1,669.26,338Z" style="fill:#263238"></path><polygon points="631.81 386.48 626.24 424.01 660.99 424.01 656.48 386.48 631.81 386.48" style="fill:#455a64"></polygon><path d="M657.87,398.11c0,.2-6.27.36-14,.36s-14-.16-14-.36,6.27-.36,14-.36S657.87,397.91,657.87,398.11Z" style="fill:#263238"></path><path d="M658.56,401.09c0,.2-6.48.36-14.47.36s-14.47-.16-14.47-.36,6.47-.36,14.47-.36S658.56,400.89,658.56,401.09Z" style="fill:#263238"></path></g><g id="freepik--Drink--inject-54"><path d="M594.25,450.29a85.36,85.36,0,0,1-17.86-.08,7.85,7.85,0,0,1-7-7.81h31.94A7.91,7.91,0,0,1,594.25,450.29Z" style="fill:#e0e0e0"></path><path d="M599.44,448.21a65.87,65.87,0,0,1-28.23.07,7.9,7.9,0,0,1-6.18-7.72v-48.7a7.89,7.89,0,0,1,7.89-7.89h24.84a7.89,7.89,0,0,1,7.89,7.89v48.63A7.89,7.89,0,0,1,599.44,448.21Z" style="fill:#FF725E"></path><path d="M604.21,387.46c.63,2-.9,4.6-4.29,6.77a30,30,0,0,1-29.08.18c-3.42-2.13-5-4.68-4.37-6.72s3.14-3.33,6.52-4.1a60.48,60.48,0,0,1,12.32-1.1,59.44,59.44,0,0,1,12.33,1C601,384.17,603.57,385.38,604.21,387.46Z" style="fill:#FF725E"></path><g style="opacity:0.5"><path d="M604.21,387.46c.63,2-.9,4.6-4.29,6.77a30,30,0,0,1-29.08.18c-3.42-2.13-5-4.68-4.37-6.72s3.14-3.33,6.52-4.1a60.48,60.48,0,0,1,12.32-1.1,59.44,59.44,0,0,1,12.33,1C601,384.17,603.57,385.38,604.21,387.46Z"></path></g><path d="M596.73,386.78a12.1,12.1,0,0,0-5.57.47c-.8.26-1.71.81-1.66,1.65s.76,1.17,1.41,1.44a11.31,11.31,0,0,0,9.05-.22c.65-.3,1.37-.9,1.17-1.59a1.48,1.48,0,0,0-.76-.8,8.23,8.23,0,0,0-4-1.14" style="fill:#263238"></path><path d="M605.65,411a4.64,4.64,0,0,1-1,.92,8.07,8.07,0,0,1-3.7,1.36,9.29,9.29,0,0,1-6.07-1.39,7.7,7.7,0,0,1-2.66-2.94,3.49,3.49,0,0,1-.35-2.23,2.25,2.25,0,0,1,1.67-1.74,3,3,0,0,1,2.34.88,11.19,11.19,0,0,1,1.72,1.84,11.63,11.63,0,0,1,2.08,4.86,11.06,11.06,0,0,1-.4,5.65,10.15,10.15,0,0,1-3.62,4.8,10.92,10.92,0,0,1-6,2.15,9.25,9.25,0,0,1-6.28-2,10.67,10.67,0,0,1-3.7-5.74,9.2,9.2,0,0,1-.17-3.55,4,4,0,0,1,1.86-3.2,2.13,2.13,0,0,1,2.26.33,4.5,4.5,0,0,1,1.2,1.76,17.7,17.7,0,0,1,.9,3.86,21.84,21.84,0,0,1-.37,7.62,21.47,21.47,0,0,1-2.8,6.75,10.06,10.06,0,0,1-5.38,4.42,6.82,6.82,0,0,1-6.27-1.66,10.74,10.74,0,0,1-3.21-5.13,13,13,0,0,1,1.21-10.16l.26-.42.18.45a14.8,14.8,0,0,1,1.09,6.45,15.32,15.32,0,0,1-1,4.76,11.07,11.07,0,0,1-2.06,3.5,21,21,0,0,0,1.81-3.6,15.17,15.17,0,0,0,.9-4.67,14.72,14.72,0,0,0-1.16-6.25l.44,0a12.45,12.45,0,0,0-1.05,9.73,10.07,10.07,0,0,0,3.05,4.81A6.13,6.13,0,0,0,577,434.7a9.33,9.33,0,0,0,5-4.14,20.44,20.44,0,0,0,2.68-6.52,21.31,21.31,0,0,0,.34-7.36,17.39,17.39,0,0,0-.85-3.66,3.62,3.62,0,0,0-1-1.44,1.31,1.31,0,0,0-1.43-.23A3.32,3.32,0,0,0,580.3,414a8.28,8.28,0,0,0,.16,3.25,9.79,9.79,0,0,0,3.42,5.32,8.53,8.53,0,0,0,5.77,1.84,10.19,10.19,0,0,0,5.55-2,9.48,9.48,0,0,0,3.4-4.45,10.29,10.29,0,0,0,.41-5.31,11,11,0,0,0-1.93-4.62,10.31,10.31,0,0,0-1.6-1.75,2.46,2.46,0,0,0-1.88-.78,1.74,1.74,0,0,0-1.25,1.32,3.07,3.07,0,0,0,.29,1.9,7.23,7.23,0,0,0,2.45,2.78,9,9,0,0,0,5.79,1.46,8.15,8.15,0,0,0,3.65-1.2C605.29,411.27,605.62,410.91,605.65,411Z" style="fill:#fafafa"></path><path d="M601.77,384.84a2.32,2.32,0,0,1,.39.34,4.09,4.09,0,0,1,1.12,3.58A6.22,6.22,0,0,1,602,391.6a14.08,14.08,0,0,1-6.74,4.35,28.69,28.69,0,0,1-9.74,1.5,31.27,31.27,0,0,1-9.69-1.74,19.77,19.77,0,0,1-3.94-1.78,9,9,0,0,1-2.79-2.55,5.71,5.71,0,0,1-.7-5.29,3.82,3.82,0,0,1,.82-1.24,1.46,1.46,0,0,1,.4-.32,5.17,5.17,0,0,0-1,1.64,5.59,5.59,0,0,0,.81,5c1.28,1.85,3.75,3.16,6.58,4.09a32.06,32.06,0,0,0,9.55,1.67,28.79,28.79,0,0,0,9.57-1.43,14,14,0,0,0,6.61-4.12,6.18,6.18,0,0,0,1.3-2.67,4.15,4.15,0,0,0-.19-2.22A7.34,7.34,0,0,0,601.77,384.84Z" style="fill:#263238"></path></g><g id="freepik--Books--inject-54"><path d="M67.77,362.64s-16.49,12.56-.69,29.16a1.45,1.45,0,0,0,1,.44l144.08-.84s12.31-13.8,2.1-29.7Z" style="fill:#263238"></path><path d="M74.27,392.52a.69.69,0,0,1-.27,0,4.52,4.52,0,0,1-.75-.18,6,6,0,0,1-2.42-1.59,5.79,5.79,0,0,1-1.55-4.12,6.2,6.2,0,0,1,2.66-4.87l.07.45a5.1,5.1,0,0,1-3.59-4.54,5,5,0,0,1,4.23-5.08l-.08.45a5.79,5.79,0,0,1-2.86-4.32,5.41,5.41,0,0,1,1.1-3.93,5.59,5.59,0,0,1,2.09-1.67,4.07,4.07,0,0,1,.68-.24c.15,0,.24-.05.24,0s-.31.13-.85.41A5.8,5.8,0,0,0,71.06,365a5.11,5.11,0,0,0-.94,3.7,5.4,5.4,0,0,0,2.68,3.94l.65.36-.73.1a4.44,4.44,0,0,0-.58,8.66l.52.15-.45.3a5.8,5.8,0,0,0-2.51,4.47,5.51,5.51,0,0,0,1.37,3.89,6.1,6.1,0,0,0,2.24,1.64C73.92,392.42,74.28,392.48,74.27,392.52Z" style="fill:#e0e0e0"></path><path d="M74.31,387.57s-.12,0-.26-.12a1,1,0,0,1-.21-.79h0v0a1.82,1.82,0,0,1,.93-1,4.26,4.26,0,0,1,1.71-.39,12.1,12.1,0,0,1,2.06.06c.36,0,.73.09,1.11.17a2.79,2.79,0,0,1,1.18.45,1.28,1.28,0,0,1,.52.89,1.06,1.06,0,0,1-.45.93,3.21,3.21,0,0,1-1.59.49,12.08,12.08,0,0,1-2.67,0,4.63,4.63,0,0,1-2.33-.72c0-.09.89.28,2.36.35a12.6,12.6,0,0,0,2.58-.15,2.89,2.89,0,0,0,1.34-.41.6.6,0,0,0-.07-1,2.44,2.44,0,0,0-1-.35,10.39,10.39,0,0,0-1.07-.18,14,14,0,0,0-2-.12,2.54,2.54,0,0,0-2.42,1v0a1,1,0,0,0,.07.67C74.23,387.5,74.32,387.54,74.31,387.57Z" style="fill:#e0e0e0"></path><path d="M73.91,377.83s-.11,0-.25-.11a1,1,0,0,1-.21-.8h0v0a1.79,1.79,0,0,1,.93-1,4.26,4.26,0,0,1,1.71-.4,13.07,13.07,0,0,1,2,.06c.37,0,.74.1,1.12.17a2.93,2.93,0,0,1,1.18.45,1.3,1.3,0,0,1,.52.9,1.1,1.1,0,0,1-.45.93,3.3,3.3,0,0,1-1.59.48,11,11,0,0,1-2.67,0,4.64,4.64,0,0,1-2.34-.72,22.44,22.44,0,0,0,2.37.36,14.25,14.25,0,0,0,2.58-.15,2.9,2.9,0,0,0,1.34-.42c.36-.24.3-.71-.08-1a2.21,2.21,0,0,0-1-.36c-.37-.08-.72-.13-1.07-.18a14,14,0,0,0-2-.11,2.54,2.54,0,0,0-2.42,1v0a.94.94,0,0,0,.07.66C73.84,377.76,73.93,377.81,73.91,377.83Z" style="fill:#e0e0e0"></path><path d="M74.12,368.41s-.11,0-.26-.11a1,1,0,0,1-.21-.8h0v0a1.8,1.8,0,0,1,.92-1,4.3,4.3,0,0,1,1.71-.4,13.2,13.2,0,0,1,2.06.06c.36,0,.74.1,1.12.17a2.93,2.93,0,0,1,1.18.45,1.29,1.29,0,0,1,.51.9,1.07,1.07,0,0,1-.44.93,3.3,3.3,0,0,1-1.59.48,11,11,0,0,1-2.67,0,4.64,4.64,0,0,1-2.34-.72,21.87,21.87,0,0,0,2.37.36,14.09,14.09,0,0,0,2.57-.15,2.86,2.86,0,0,0,1.34-.42c.36-.24.31-.71-.07-1a2.21,2.21,0,0,0-1-.36c-.36-.08-.72-.13-1.07-.18a13.82,13.82,0,0,0-2-.11,2.53,2.53,0,0,0-2.42,1v0a.94.94,0,0,0,.07.66C74.05,368.34,74.13,368.39,74.12,368.41Z" style="fill:#e0e0e0"></path><path d="M203.69,362.1s.09,0,.27,0a3.86,3.86,0,0,1,.75.19,5.9,5.9,0,0,1,4,5.7,6.19,6.19,0,0,1-2.66,4.87l-.07-.44a4.93,4.93,0,0,1-.64,9.62l.08-.46a5.8,5.8,0,0,1,2.86,4.32,5.55,5.55,0,0,1-3.19,5.6,3.32,3.32,0,0,1-.68.24.62.62,0,0,1-.24,0s.31-.13.84-.42a5.67,5.67,0,0,0,1.92-1.7,5.16,5.16,0,0,0,.94-3.7,5.43,5.43,0,0,0-2.68-4l-.65-.36.73-.1A4.56,4.56,0,0,0,209,377a4.64,4.64,0,0,0-3.2-4.1l-.52-.14.45-.3a5.83,5.83,0,0,0,2.51-4.48,5.48,5.48,0,0,0-1.37-3.88,6.15,6.15,0,0,0-2.24-1.65C204,362.2,203.68,362.14,203.69,362.1Z" style="fill:#e0e0e0"></path><path d="M203.65,367.05s.12,0,.26.11a1,1,0,0,1,.21.8h0v0a1.76,1.76,0,0,1-.92,1,4.3,4.3,0,0,1-1.71.4,13.23,13.23,0,0,1-2.06-.06c-.36,0-.73-.1-1.11-.17a2.93,2.93,0,0,1-1.18-.45,1.27,1.27,0,0,1-.52-.9,1.05,1.05,0,0,1,.45-.93,3.3,3.3,0,0,1,1.59-.48,11,11,0,0,1,2.67,0,4.57,4.57,0,0,1,2.33.72,21.91,21.91,0,0,0-2.36-.36,14.2,14.2,0,0,0-2.58.15,2.9,2.9,0,0,0-1.34.42c-.36.24-.31.71.07,1a2.25,2.25,0,0,0,1,.36c.36.08.72.13,1.07.18a13.88,13.88,0,0,0,2,.11,2.54,2.54,0,0,0,2.42-1v0a.94.94,0,0,0-.07-.66C203.73,367.12,203.64,367.07,203.65,367.05Z" style="fill:#e0e0e0"></path><path d="M204,376.78s.12,0,.26.12a1,1,0,0,1,.21.79h0v0a1.82,1.82,0,0,1-.93,1,4.26,4.26,0,0,1-1.71.39,12.1,12.1,0,0,1-2.06-.06c-.36,0-.73-.09-1.11-.17a2.79,2.79,0,0,1-1.18-.45,1.28,1.28,0,0,1-.52-.89,1.07,1.07,0,0,1,.45-.93,3.32,3.32,0,0,1,1.59-.49,12.08,12.08,0,0,1,2.67,0,4.63,4.63,0,0,1,2.33.72c0,.09-.89-.28-2.36-.35a12.6,12.6,0,0,0-2.58.15,3,3,0,0,0-1.34.41.6.6,0,0,0,.07,1,2.61,2.61,0,0,0,1,.36c.36.07.72.13,1.07.17a14,14,0,0,0,2,.12,2.54,2.54,0,0,0,2.42-1v0a1,1,0,0,0-.07-.67C204.12,376.85,204,376.81,204,376.78Z" style="fill:#e0e0e0"></path><path d="M203.84,386.2s.11,0,.26.12a1,1,0,0,1,.21.79h0v0a1.83,1.83,0,0,1-.92,1,4.31,4.31,0,0,1-1.72.39,12,12,0,0,1-2-.06c-.36,0-.74-.09-1.12-.17a2.79,2.79,0,0,1-1.18-.45,1.27,1.27,0,0,1-.51-.89,1.05,1.05,0,0,1,.44-.93,3.32,3.32,0,0,1,1.59-.49,12.08,12.08,0,0,1,2.67,0,4.76,4.76,0,0,1,2.34.72c0,.09-.89-.28-2.37-.35a12.5,12.5,0,0,0-2.57.15,2.94,2.94,0,0,0-1.35.41.61.61,0,0,0,.08,1,2.48,2.48,0,0,0,1,.36c.36.07.72.13,1.07.17a13.9,13.9,0,0,0,2,.12c1.21,0,2.18-.42,2.42-1v0a.92.92,0,0,0-.06-.67C203.91,386.27,203.83,386.23,203.84,386.2Z" style="fill:#e0e0e0"></path><path d="M180.54,375.75c0,.14-17.94.26-40.07.26s-40.07-.12-40.07-.26,17.94-.26,40.07-.26S180.54,375.61,180.54,375.75Z" style="fill:#e0e0e0"></path><path d="M158.13,381c0,.15-8.44.26-18.84.26s-18.84-.11-18.84-.26,8.43-.26,18.84-.26S158.13,380.82,158.13,381Z" style="fill:#e0e0e0"></path><path d="M89,239.38S73.8,251,88.35,266.24a1.35,1.35,0,0,0,1,.41L222,265.87s11.33-12.71,1.93-27.36Z" style="fill:#263238"></path><path d="M192.71,251.46c0,.14-16.53.26-36.91.26s-36.92-.12-36.92-.26,16.53-.26,36.92-.26S192.71,251.31,192.71,251.46Z" style="fill:#e0e0e0"></path><path d="M172.06,256.26c0,.14-7.77.26-17.35.26s-17.36-.12-17.36-.26,7.77-.26,17.36-.26S172.06,256.11,172.06,256.26Z" style="fill:#e0e0e0"></path><path d="M206.28,265.45c-.09,0,.29-1.52.7-4a54.91,54.91,0,0,0-.18-19.36c-.46-2.45-.87-3.94-.78-4a4.43,4.43,0,0,1,.38,1c.22.66.48,1.65.76,2.87a47.29,47.29,0,0,1,.19,19.49c-.26,1.23-.5,2.22-.71,2.89A4.8,4.8,0,0,1,206.28,265.45Z" style="fill:#e0e0e0"></path><path d="M216.18,238.35a4.45,4.45,0,0,1,.59,1,12,12,0,0,1,.59,1.19c.2.48.47,1,.67,1.63a28.05,28.05,0,0,1,1.27,4.4,32,32,0,0,1,.57,5.58,32.55,32.55,0,0,1-.48,5.6,29.24,29.24,0,0,1-1.19,4.42c-.2.62-.46,1.16-.65,1.63s-.4.88-.57,1.2a4.32,4.32,0,0,1-.58,1c-.09-.05.65-1.48,1.45-3.93a31.52,31.52,0,0,0,1.06-4.39,33.68,33.68,0,0,0,.44-5.5,33.11,33.11,0,0,0-.53-5.5,32.31,32.31,0,0,0-1.13-4.37C216.86,239.81,216.09,238.39,216.18,238.35Z" style="fill:#e0e0e0"></path><path d="M109.93,265.63a4.51,4.51,0,0,1-.61-.89,9.62,9.62,0,0,1-.62-1.11,13.92,13.92,0,0,1-.71-1.53,22.57,22.57,0,0,1-1.29-4.18,24.46,24.46,0,0,1,.14-10.68,24.16,24.16,0,0,1,1.4-4.15c.24-.58.52-1.07.75-1.51a10.45,10.45,0,0,1,.65-1.09,4.09,4.09,0,0,1,.64-.87c.09.06-.77,1.34-1.7,3.62a25.84,25.84,0,0,0-1.27,4.11,28.86,28.86,0,0,0-.61,5.23,28.52,28.52,0,0,0,.47,5.24,26.37,26.37,0,0,0,1.16,4.15C109.2,264.27,110,265.57,109.93,265.63Z" style="fill:#e0e0e0"></path><path d="M95.6,268.86a5.52,5.52,0,0,1-.68-1,13.23,13.23,0,0,1-.69-1.25,18.65,18.65,0,0,1-.8-1.71,27.53,27.53,0,0,1-1.52-4.69,32,32,0,0,1-.75-6,33.39,33.39,0,0,1,.48-6A29.82,29.82,0,0,1,93,243.46c.22-.66.51-1.23.73-1.74a11,11,0,0,1,.63-1.28,6.09,6.09,0,0,1,.64-1c.09,0-.76,1.56-1.65,4.19a30.29,30.29,0,0,0-1.18,4.7,34.43,34.43,0,0,0-.44,5.92,34.07,34.07,0,0,0,.7,5.9,31.85,31.85,0,0,0,1.39,4.65C94.78,267.34,95.69,268.81,95.6,268.86Z" style="fill:#e0e0e0"></path><polygon points="43.71 422.54 43.37 392.14 59.91 392.14 60.48 422.54 43.71 422.54" style="fill:#f5f5f5"></polygon><path d="M58.94,397.55a57.9,57.9,0,0,1-7.69.26,57.77,57.77,0,0,1-7.69-.26,57.77,57.77,0,0,1,7.69-.26A57.9,57.9,0,0,1,58.94,397.55Z" style="fill:#e0e0e0"></path><path d="M58.94,402.24a57.9,57.9,0,0,1-7.69.26,57.77,57.77,0,0,1-7.69-.26,57.77,57.77,0,0,1,7.69-.26A57.9,57.9,0,0,1,58.94,402.24Z" style="fill:#e0e0e0"></path><path d="M58.94,406.93a55.93,55.93,0,0,1-7.69.26,55.81,55.81,0,0,1-7.69-.26,57.77,57.77,0,0,1,7.69-.26A57.9,57.9,0,0,1,58.94,406.93Z" style="fill:#e0e0e0"></path><path d="M58.94,411.62a55.93,55.93,0,0,1-7.69.26,55.81,55.81,0,0,1-7.69-.26,57.77,57.77,0,0,1,7.69-.26A57.9,57.9,0,0,1,58.94,411.62Z" style="fill:#e0e0e0"></path><path d="M58.94,416.32a57.9,57.9,0,0,1-7.69.26,57.77,57.77,0,0,1-7.69-.26,55.81,55.81,0,0,1,7.69-.26A55.93,55.93,0,0,1,58.94,416.32Z" style="fill:#e0e0e0"></path><path d="M41.93,391.13H225.32c2.27,10.07,2,21.15,0,32.86H42.72v-2.23H53.87a5.27,5.27,0,0,0,5.27-5.27V398.3A5.26,5.26,0,0,0,53.87,393H41.93Z" style="fill:#455a64"></path><path d="M86.73,401.81a1.77,1.77,0,0,1,.08.22q.19.68,2.16,11.37a.45.45,0,0,1,0,.16.69.69,0,0,1-.09.34.6.6,0,0,1-.55.33h-.1a.6.6,0,0,1-.51-.45L87,410H83.25l-1.81,3.79a.34.34,0,0,1-.06.12.71.71,0,0,1-.56.32.65.65,0,0,1-.36-.1.64.64,0,0,1-.3-.56.43.43,0,0,1,0-.19c.11-.27.3-.68.56-1.25q4-8.62,4.73-10.19a.69.69,0,0,1,1.24-.13Zm-.82,2.54-2,4.29h2.88Z" style="fill:#263238"></path><path d="M90.19,412a1.28,1.28,0,0,1,0-.3.67.67,0,0,1,.06-.28.5.5,0,0,1,.49-.31.79.79,0,0,1,.6.36l.17.21a3.07,3.07,0,0,0,2.21,1.42,2.53,2.53,0,0,0,2.51-2.51,2.48,2.48,0,0,0-.46-1.5,4.25,4.25,0,0,0-1.3-1c-.65-.38-1-.61-1.16-.7a5,5,0,0,1-.72-.61,2.72,2.72,0,0,1-.73-1.94c0-.1,0-.21,0-.32a3.2,3.2,0,0,1,1-2.1,3.14,3.14,0,0,1,2.21-.86,3.22,3.22,0,0,1,1.06.17,3.05,3.05,0,0,1,1.66,1.28,1,1,0,0,1,.1.36.63.63,0,0,1-.08.29.57.57,0,0,1-.52.31.51.51,0,0,1-.42-.16,2.41,2.41,0,0,0-1.81-1,1.94,1.94,0,0,0-1.36.55,2,2,0,0,0-.65,1.51,1.57,1.57,0,0,0,.34,1,4.5,4.5,0,0,0,1.2.93,12.3,12.3,0,0,1,1.46,1,3.6,3.6,0,0,1,1.54,2.88,3.64,3.64,0,0,1-.07.74,3.73,3.73,0,0,1-1.37,2.18,3.85,3.85,0,0,1-2.47.88,3.53,3.53,0,0,1-1.71-.45A4.43,4.43,0,0,1,90.19,412Z" style="fill:#263238"></path><path d="M109.18,402.15a.63.63,0,0,1-.1.32.7.7,0,0,1-.62.29H104.7q-1.32,10.41-1.39,10.8s0,.07,0,.1a.65.65,0,0,1-.68.57.6.6,0,0,1-.35-.1.79.79,0,0,1-.31-.7q0-.09,1-7.5c.23-1.67.37-2.73.42-3.17H99.86a1,1,0,0,1-.36-.05.55.55,0,0,1-.44-.53.82.82,0,0,1,.1-.37.68.68,0,0,1,.62-.32h8.7a.74.74,0,0,1,.24.05A.61.61,0,0,1,109.18,402.15Z" style="fill:#263238"></path><path d="M110.42,413.56c-.07.44-.3.67-.67.67a.57.57,0,0,1-.34-.1.76.76,0,0,1-.33-.7q.38-3.09,1.49-11.32a.64.64,0,0,1,.17-.31,1,1,0,0,1,.69-.25,8,8,0,0,1,1.61-.14,6.79,6.79,0,0,1,1.15.09,2.42,2.42,0,0,1,2.31,2.55,4.39,4.39,0,0,1-.27,1.55q-.83,2.23-4.09,3.25l4.54,4.15a.88.88,0,0,1,.28.59.68.68,0,0,1-.09.33.6.6,0,0,1-.53.31,1,1,0,0,1-.54-.18c-.12-.09-1.74-1.56-4.86-4.43C110.67,411.8,110.49,413.11,110.42,413.56Zm1.43-10.81-.64,4.93a6.26,6.26,0,0,0,2.21-.77,3.17,3.17,0,0,0,1.8-2.83c0-.95-.72-1.43-2.16-1.44Z" style="fill:#263238"></path><path d="M117.85,409a9.81,9.81,0,0,1,.39-2.71,8.73,8.73,0,0,1,1.84-3.5,3.69,3.69,0,0,1,2.71-1.43,2.8,2.8,0,0,1,2.26,1.23,6.24,6.24,0,0,1,1.12,3.45c.18-.07.45-.19.8-.36a2.55,2.55,0,0,1,1-.33.6.6,0,0,1,.29.08.57.57,0,0,1,.31.53.89.89,0,0,1-.29.59,4.13,4.13,0,0,1-2.15.89,9,9,0,0,1-.31,1.78,8.45,8.45,0,0,1-1.84,3.58,3.74,3.74,0,0,1-2.76,1.41l-.36,0a3,3,0,0,1-2.1-1.51A6.86,6.86,0,0,1,117.85,409Zm1.4-.24a7.14,7.14,0,0,0,.43,2.61c.38,1,.95,1.49,1.69,1.49a1.49,1.49,0,0,0,.59-.14,4.12,4.12,0,0,0,1.68-1.82,8.87,8.87,0,0,0,1.12-3.34,4,4,0,0,1-2.23-.69,4.82,4.82,0,0,1-1.9-2.64A8.12,8.12,0,0,0,119.25,408.78Zm3.79-5.9a.79.79,0,0,0-.38.09,1.08,1.08,0,0,0-.46,1,1.5,1.5,0,0,0,0,.29,2.25,2.25,0,0,0,1.13,1.53,2.93,2.93,0,0,0,1.44.48,9,9,0,0,0-.19-1.34C124.3,403.62,123.78,402.93,123,402.88Z" style="fill:#263238"></path><path d="M136.5,413.59c-.06.42-.28.64-.66.64a.83.83,0,0,1-.7-.48L131,404.24c0,.45-.11.95-.19,1.51-.54,4.56-.87,7.17-1,7.81-.08.44-.3.67-.68.67a.64.64,0,0,1-.35-.1.78.78,0,0,1-.32-.7q1.48-11.3,1.49-11.32a1.22,1.22,0,0,1,.09-.27.68.68,0,0,1,.61-.33c.36,0,.59.1.7.32l4.14,9.3,1.21-9a.73.73,0,0,1,.07-.29.57.57,0,0,1,.55-.36.66.66,0,0,1,.33.09.62.62,0,0,1,.31.56c0,.19-.05.39-.07.6Q136.69,412.49,136.5,413.59Z" style="fill:#263238"></path><path d="M139.38,409a9.81,9.81,0,0,1,.39-2.71,8.73,8.73,0,0,1,1.84-3.5,3.69,3.69,0,0,1,2.71-1.43,2.8,2.8,0,0,1,2.26,1.23,6.24,6.24,0,0,1,1.12,3.45c.18-.07.45-.19.8-.36a2.55,2.55,0,0,1,1-.33.6.6,0,0,1,.29.08.57.57,0,0,1,.31.53.89.89,0,0,1-.29.59,4.13,4.13,0,0,1-2.15.89,9.75,9.75,0,0,1-.31,1.78,8.45,8.45,0,0,1-1.84,3.58,3.74,3.74,0,0,1-2.76,1.41l-.36,0a3,3,0,0,1-2.1-1.51A6.86,6.86,0,0,1,139.38,409Zm1.4-.24a7.14,7.14,0,0,0,.43,2.61c.38,1,.95,1.49,1.69,1.49a1.49,1.49,0,0,0,.59-.14,4.12,4.12,0,0,0,1.68-1.82,8.87,8.87,0,0,0,1.12-3.34,4,4,0,0,1-2.23-.69,4.82,4.82,0,0,1-1.9-2.64A8.12,8.12,0,0,0,140.78,408.78Zm3.79-5.9a.79.79,0,0,0-.38.09,1.08,1.08,0,0,0-.46,1,1.5,1.5,0,0,0,0,.29,2.22,2.22,0,0,0,1.13,1.53,2.93,2.93,0,0,0,1.44.48,9,9,0,0,0-.19-1.34C145.83,403.62,145.31,402.93,144.57,402.88Z" style="fill:#263238"></path><path d="M159.17,413.56a0,0,0,0,0,0,0c-.06.43-.28.64-.66.64a.57.57,0,0,1-.34-.1.76.76,0,0,1-.33-.7q0-.14.79-6.75-2,4.13-3.08,6.51l-.27.57a.73.73,0,0,1-.65.47h-.16c-.23-.05-.4-.24-.52-.58l-1.43-7q-.49,3.76-1,6.9a0,0,0,0,0,0,0c-.06.43-.28.64-.66.64a.57.57,0,0,1-.34-.1.76.76,0,0,1-.33-.7q0-.07,1.17-8.87c.2-1.52.31-2.33.33-2.45a.79.79,0,0,1,.1-.27.64.64,0,0,1,.59-.33.62.62,0,0,1,.19,0c.24.07.37.19.4.37q.16.92,1.07,5.37c.43,2.14.7,3.52.83,4.15l4.45-9.44a1,1,0,0,1,.09-.17.72.72,0,0,1,.59-.3.56.56,0,0,1,.3.08.69.69,0,0,1,.36.56c0,.16-.05.34-.07.55Q159.37,412.35,159.17,413.56Z" style="fill:#263238"></path><path d="M170.88,401.52a.71.71,0,0,1,.31.08.68.68,0,0,1,.35.56q-1.36,10.72-1.5,11.59a7.11,7.11,0,0,1-1.18,3,4.27,4.27,0,0,1-5.44,1.33,4,4,0,0,1-1.95-1.71.71.71,0,0,1-.07-.32.63.63,0,0,1,.09-.33.62.62,0,0,1,.56-.33.66.66,0,0,1,.51.27,3.52,3.52,0,0,0,2.83,1.61,2.76,2.76,0,0,0,2.19-1.11,6.13,6.13,0,0,0,1.22-3.48,3.22,3.22,0,0,1-.82.87,3.29,3.29,0,0,1-2,.65l-.37,0a3,3,0,0,1-2.1-1.5,6.89,6.89,0,0,1-.92-3.69q0-1,.09-2.07.17-1.68.75-4.77a.82.82,0,0,1,.06-.19.6.6,0,0,1,.59-.45.62.62,0,0,1,.32.09.59.59,0,0,1,.33.53,24.31,24.31,0,0,1-.3,2.52,35.3,35.3,0,0,0-.44,3.85,7.69,7.69,0,0,0,.5,3c.37.9.92,1.35,1.63,1.35a.83.83,0,0,0,.22,0,3,3,0,0,0,1.66-1.32,8.29,8.29,0,0,0,1.36-3.05l.84-6.3a.9.9,0,0,1,.08-.28A.62.62,0,0,1,170.88,401.52Z" style="fill:#263238"></path><circle cx="196.62" cy="407.69" r="9.64" transform="translate(-230.69 258.44) rotate(-45)" style="fill:#263238"></circle><path d="M195.36,410.7a1.57,1.57,0,1,1-1.57-1.57A1.57,1.57,0,0,1,195.36,410.7Z" style="fill:#455a64"></path><circle cx="192.22" cy="406.16" r="0.91" style="fill:#455a64"></circle><path d="M187.26,410c0,.16-8.25,8.13-6.11,9.82s11.13-2.65,18.8-8.85,14.67-13.71,12.76-15.7-11.5,3.9-11.5,3.9l1.14.73s5.8-3.72,7.63-2.27-3.39,7.07-10.77,12.46-14.5,9.16-15.6,7.68,4.11-6.39,4.11-6.39Z" style="fill:#263238"></path><g style="opacity:0.30000000000000004"><path d="M191.3,400.9c.08.09-.57.65-1.31,1.76a8.87,8.87,0,0,0-.2,9.75c.7,1.15,1.33,1.73,1.25,1.82s-.83-.38-1.69-1.52a8.59,8.59,0,0,1-1.67-5.22,8.85,8.85,0,0,1,.62-3,8.57,8.57,0,0,1,1.26-2.14C190.46,401.25,191.26,400.83,191.3,400.9Z" style="fill:#455a64"></path></g><path d="M219,424.62c-.14,0-.26-7.55-.26-16.86s.12-16.85.26-16.85.26,7.54.26,16.85S219.14,424.62,219,424.62Z" style="fill:#263238"></path><path d="M68.92,424.62c-.14,0-.26-7.55-.26-16.86s.12-16.85.26-16.85.26,7.54.26,16.85S69.07,424.62,68.92,424.62Z" style="fill:#263238"></path><path d="M222.21,424.62c-.14,0-.26-7.55-.26-16.86s.12-16.85.26-16.85.26,7.54.26,16.85S222.35,424.62,222.21,424.62Z" style="fill:#263238"></path><path d="M65.91,424.62c-.14,0-.26-7.55-.26-16.86s.12-16.85.26-16.85.26,7.54.26,16.85S66.06,424.62,65.91,424.62Z" style="fill:#263238"></path><path d="M204,335.82v25.4H180.12v-25.4Z" style="fill:#ebebeb"></path><path d="M73.11,333.65c-3.72,9-3.18,18.9,0,29.4H205.23v-1.83h-8.42a12.7,12.7,0,0,1-12.69-12.7h0a12.69,12.69,0,0,1,12.69-12.7h8.89v-2.7Z" style="fill:#FF725E"></path><path d="M189.9,337.75c0,.15-26.46.26-59.09.26s-59.09-.11-59.09-.26,26.45-.26,59.09-.26S189.9,337.61,189.9,337.75Z" style="fill:#e0e0e0"></path><path d="M191,359.82c0,.14-26.6.26-59.4.26s-59.42-.12-59.42-.26,26.6-.26,59.42-.26S191,359.68,191,359.82Z" style="fill:#e0e0e0"></path><g style="opacity:0.30000000000000004"><path d="M121.58,342.17q3.06,0,3.12,2.31a3.55,3.55,0,0,1-1.3,2.95,2.49,2.49,0,0,1,2,2.58,4.06,4.06,0,0,1-.34,1.44q-1,2.12-4.58,2.11c-.29,0-.72,0-1.3-.05a.59.59,0,0,1-.32-.09.7.7,0,0,1-.28-.61l1.3-10a.69.69,0,0,1,0-.24.53.53,0,0,1,.52-.32A7.72,7.72,0,0,1,121.58,342.17Zm-1.24,6.11-.55,4.16.65,0a6.61,6.61,0,0,0,2-.27,2.19,2.19,0,0,0,1.78-2.17c0-.72-.48-1.22-1.42-1.49A12,12,0,0,0,120.34,348.28Zm.65-5-.51,3.83.44,0c1.77-.1,2.65-1,2.65-2.59a1.07,1.07,0,0,0-.48-.92,3.43,3.43,0,0,0-1.76-.33A2,2,0,0,0,121,343.26Z"></path><path d="M126.66,348.91a8.61,8.61,0,0,1,.34-2.38,7.62,7.62,0,0,1,1.63-3.08,3.2,3.2,0,0,1,2.38-1.27,2.49,2.49,0,0,1,2,1.08,5.45,5.45,0,0,1,1,3.05c.16-.06.4-.17.71-.32a2.33,2.33,0,0,1,.89-.29.48.48,0,0,1,.26.07.51.51,0,0,1,.27.46.79.79,0,0,1-.26.53,3.64,3.64,0,0,1-1.89.78,8.32,8.32,0,0,1-.27,1.57,7.48,7.48,0,0,1-1.63,3.16,3.26,3.26,0,0,1-2.43,1.24,1.72,1.72,0,0,1-.32,0,2.6,2.6,0,0,1-1.85-1.33A6,6,0,0,1,126.66,348.91Zm1.23-.2a6.35,6.35,0,0,0,.38,2.29c.34.88.84,1.32,1.49,1.32a1.14,1.14,0,0,0,.52-.13,3.62,3.62,0,0,0,1.49-1.59,8,8,0,0,0,1-3,3.48,3.48,0,0,1-2-.6,4.22,4.22,0,0,1-1.68-2.33A7.23,7.23,0,0,0,127.89,348.71Zm3.35-5.21a.64.64,0,0,0-.34.09.93.93,0,0,0-.4.9,1.18,1.18,0,0,0,0,.26,2,2,0,0,0,1,1.35,2.58,2.58,0,0,0,1.27.42,7,7,0,0,0-.18-1.18C132.35,344.16,131.89,343.55,131.24,343.5Z"></path><path d="M143.83,342.86a.49.49,0,0,1-.09.28.62.62,0,0,1-.54.26h-3.32q-1.15,9.18-1.22,9.52V353a.58.58,0,0,1-.6.5.51.51,0,0,1-.3-.09.68.68,0,0,1-.28-.61c0-.06.29-2.26.87-6.62.2-1.47.33-2.4.37-2.79h-3.09a.86.86,0,0,1-.32,0,.47.47,0,0,1-.39-.47.62.62,0,0,1,.09-.32.59.59,0,0,1,.54-.28h7.67a.6.6,0,0,1,.22,0A.54.54,0,0,1,143.83,342.86Z"></path><path d="M146.87,342.56a.77.77,0,0,1,.07.2c.12.39.75,3.73,1.91,10a.32.32,0,0,1,0,.14.67.67,0,0,1-.08.3.56.56,0,0,1-.49.29h-.09a.55.55,0,0,1-.45-.4l-.64-3.33h-3.32l-1.6,3.34a.54.54,0,0,1-.05.11.64.64,0,0,1-.5.28.62.62,0,0,1-.32-.09.57.57,0,0,1-.26-.49.35.35,0,0,1,0-.17c.1-.23.26-.6.49-1.1q3.48-7.61,4.17-9a.63.63,0,0,1,.56-.41A.62.62,0,0,1,146.87,342.56Zm-.72,2.24-1.8,3.78h2.54Z"></path><path d="M157.43,352.94q-.08.57-.57.57a.71.71,0,0,1-.62-.42l-3.67-8.39c0,.4-.1.84-.17,1.33-.48,4-.77,6.32-.87,6.89-.06.39-.26.59-.59.59a.56.56,0,0,1-.31-.09.69.69,0,0,1-.29-.61q1.32-10,1.32-10a.9.9,0,0,1,.08-.23.59.59,0,0,1,.54-.3.63.63,0,0,1,.61.28l3.65,8.21,1.07-7.93a.54.54,0,0,1,.06-.25.5.5,0,0,1,.49-.32.53.53,0,0,1,.29.08.55.55,0,0,1,.27.49c0,.17,0,.34-.06.53Q157.59,352,157.43,352.94Z"></path><path d="M167.73,342.31a.6.6,0,0,1,.27.06.58.58,0,0,1,.32.5q-1.2,9.45-1.32,10.22a6.35,6.35,0,0,1-1.05,2.66,3.79,3.79,0,0,1-3.23,1.59,3.73,3.73,0,0,1-1.56-.42,3.37,3.37,0,0,1-1.72-1.51.53.53,0,0,1-.07-.28.6.6,0,0,1,.08-.29.56.56,0,0,1,.5-.29.58.58,0,0,1,.44.24,3.14,3.14,0,0,0,2.5,1.42,2.47,2.47,0,0,0,1.94-1,5.41,5.41,0,0,0,1.07-3.07,2.91,2.91,0,0,1-2.47,1.34l-.32,0a2.61,2.61,0,0,1-1.85-1.33,6,6,0,0,1-.81-3.25c0-.59,0-1.2.07-1.83.1-1,.32-2.38.67-4.2a.3.3,0,0,1,.05-.16.53.53,0,0,1,.52-.4.5.5,0,0,1,.28.08.51.51,0,0,1,.29.46,21,21,0,0,1-.27,2.22,31.74,31.74,0,0,0-.38,3.4,6.81,6.81,0,0,0,.43,2.64c.34.8.82,1.19,1.45,1.19l.19,0a2.63,2.63,0,0,0,1.46-1.17,7.18,7.18,0,0,0,1.2-2.68l.74-5.56a.62.62,0,0,1,.08-.24A.51.51,0,0,1,167.73,342.31Z"></path></g><g style="opacity:0.30000000000000004"><path d="M91.93,354.29A5.14,5.14,0,0,0,95.09,350a6.24,6.24,0,0,0-2.22-4.26,18.72,18.72,0,0,0-4.18-2.59L85,341.26a1.48,1.48,0,0,0-1.26-.21,1.46,1.46,0,0,0-.62,1.14,16.59,16.59,0,0,0,1.14,9.33c.78,1.78,1.84,3.41,3.65,4a5.75,5.75,0,0,0,4-1.25"></path></g><path d="M93.75,356.61a54.91,54.91,0,0,1-4.46-6.17,53.84,53.84,0,0,1-4-6.47,57.23,57.23,0,0,1,4.46,6.18A56.84,56.84,0,0,1,93.75,356.61Z" style="fill:#FF725E"></path><path d="M89,349.52c0,.14-.91.06-2-.18s-1.87-.55-1.83-.69.9-.06,2,.18S89,349.38,89,349.52Z" style="fill:#FF725E"></path><path d="M91.18,352.59c0,.14-.9.06-2-.18s-1.87-.55-1.84-.69.91-.06,2,.18S91.21,352.45,91.18,352.59Z" style="fill:#FF725E"></path><path d="M90.29,351.34a9.74,9.74,0,0,1,0-4.47,9.74,9.74,0,0,1,0,4.47Z" style="fill:#FF725E"></path><g style="opacity:0.30000000000000004"><path d="M100,352.11a4.06,4.06,0,0,0,4,1.35,4.85,4.85,0,0,0,2.66-2.66,14.42,14.42,0,0,0,1-3.73c.17-1.06.35-2.12.52-3.17a1.13,1.13,0,0,0-.14-1,1.1,1.1,0,0,0-1-.2,12.92,12.92,0,0,0-6.71,3,5.19,5.19,0,0,0-2.15,3.67,4.47,4.47,0,0,0,1.86,2.7"></path></g><path d="M98.7,354a34.68,34.68,0,0,1,3.53-4.82,34.66,34.66,0,0,1,3.93-4.49,33.39,33.39,0,0,1-3.52,4.81A33.16,33.16,0,0,1,98.7,354Z" style="fill:#FF725E"></path><path d="M102.89,348.79c-.14,0-.31-.66-.38-1.49s0-1.53.14-1.54.32.66.38,1.49S103,348.78,102.89,348.79Z" style="fill:#FF725E"></path><path d="M101.11,351.15c-.14,0-.31-.66-.38-1.49s0-1.53.14-1.54.32.66.38,1.5S101.26,351.14,101.11,351.15Z" style="fill:#FF725E"></path><path d="M101.84,350.2c0-.14.67-.49,1.59-.78s1.7-.42,1.74-.28-.66.48-1.59.77S101.88,350.33,101.84,350.2Z" style="fill:#FF725E"></path><path d="M204,348.86a95.91,95.91,0,0,1-9.91.26,95.91,95.91,0,0,1-9.91-.26,92.65,92.65,0,0,1,9.91-.26A92.65,92.65,0,0,1,204,348.86Z" style="fill:#e0e0e0"></path><path d="M204,354.58a80,80,0,0,1-9,.26,80,80,0,0,1-9.05-.26,77.24,77.24,0,0,1,9.05-.26A77.24,77.24,0,0,1,204,354.58Z" style="fill:#e0e0e0"></path><path d="M204.08,359.81a41.33,41.33,0,0,1-6.61.26,41.25,41.25,0,0,1-6.6-.26,42.7,42.7,0,0,1,6.6-.26A42.78,42.78,0,0,1,204.08,359.81Z" style="fill:#e0e0e0"></path><path d="M204.12,343.71a85.7,85.7,0,0,1-9.53.26,85.55,85.55,0,0,1-9.53-.26,88.56,88.56,0,0,1,9.53-.26A88.71,88.71,0,0,1,204.12,343.71Z" style="fill:#e0e0e0"></path><path d="M204,338.57a51.32,51.32,0,0,1-7.37.26,51.41,51.41,0,0,1-7.38-.26,53.21,53.21,0,0,1,7.38-.26A53.12,53.12,0,0,1,204,338.57Z" style="fill:#e0e0e0"></path><path d="M217.17,306.3v25.39H168V306.3Z" style="fill:#ebebeb"></path><path d="M58.44,319.23l0,.67a14.56,14.56,0,0,0,14.62,13.63H219.46v-1.84H184.71A12.69,12.69,0,0,1,172,319h0a12.69,12.69,0,0,1,12.69-12.69h34.75v-2.7l-146.41.49A14.65,14.65,0,0,0,58.44,319.23Z" style="fill:#FF725E"></path><path d="M217.17,319.33c0,.15-10.11.26-22.57.26s-22.57-.11-22.57-.26,10.11-.26,22.57-.26S217.17,319.19,217.17,319.33Z" style="fill:#e0e0e0"></path><path d="M216.46,325.06c0,.14-9.56.26-21.36.26s-21.35-.12-21.35-.26,9.56-.26,21.35-.26S216.46,324.91,216.46,325.06Z" style="fill:#e0e0e0"></path><path d="M217.17,330.29c0,.14-8.6.26-19.2.26s-19.2-.12-19.2-.26,8.59-.26,19.2-.26S217.17,330.15,217.17,330.29Z" style="fill:#e0e0e0"></path><path d="M217.17,314.19c0,.14-9.9.26-22.11.26s-22.1-.12-22.1-.26,9.89-.26,22.1-.26S217.17,314.05,217.17,314.19Z" style="fill:#e0e0e0"></path><path d="M216.46,309.05c0,.14-8.81.26-19.68.26s-19.68-.12-19.68-.26,8.81-.26,19.68-.26S216.46,308.91,216.46,309.05Z" style="fill:#e0e0e0"></path><g style="opacity:0.30000000000000004"><path d="M58.44,319.23l0,.67a14.56,14.56,0,0,0,14.62,13.63H219.46v-1.84H184.71A12.69,12.69,0,0,1,172,319h0a12.69,12.69,0,0,1,12.69-12.69h34.75v-2.7l-146.41.49A14.65,14.65,0,0,0,58.44,319.23Z"></path></g><path d="M76.18,304.52a32.07,32.07,0,0,0-3.12,3.69A18.81,18.81,0,0,0,73.32,330a31.86,31.86,0,0,0,3.2,3.62,4.59,4.59,0,0,1-1-.78A16.65,16.65,0,0,1,73,330.2a18.54,18.54,0,0,1-.26-22.2,17.31,17.31,0,0,1,2.38-2.68A4.91,4.91,0,0,1,76.18,304.52Z" style="fill:#e0e0e0"></path><path d="M71.23,304a33.46,33.46,0,0,0-3.11,3.7,18.79,18.79,0,0,0,.25,21.77,31.86,31.86,0,0,0,3.2,3.62,5,5,0,0,1-1-.78,16.66,16.66,0,0,1-2.44-2.62,18.52,18.52,0,0,1-.27-22.2,17.31,17.31,0,0,1,2.38-2.68A5.83,5.83,0,0,1,71.23,304Z" style="fill:#e0e0e0"></path><path d="M170.68,304.52a31.51,31.51,0,0,0-3.11,3.69,18.81,18.81,0,0,0,.26,21.77,29.64,29.64,0,0,0,3.2,3.62,4.74,4.74,0,0,1-1.06-.78,16.22,16.22,0,0,1-2.44-2.62,18.5,18.5,0,0,1-.26-22.2,16.33,16.33,0,0,1,2.38-2.68A4.75,4.75,0,0,1,170.68,304.52Z" style="fill:#e0e0e0"></path><path d="M165.73,304a33.46,33.46,0,0,0-3.11,3.7,18.81,18.81,0,0,0,.26,21.77,30.71,30.71,0,0,0,3.2,3.62,5.2,5.2,0,0,1-1.06-.78,17.15,17.15,0,0,1-2.44-2.62,18.54,18.54,0,0,1-.26-22.2,16.33,16.33,0,0,1,2.38-2.68A5.61,5.61,0,0,1,165.73,304Z" style="fill:#e0e0e0"></path><path d="M92.84,322.8c0-3.44-.1-6.89-.14-10.33a7.45,7.45,0,0,0-.37-2.66,2.5,2.5,0,0,0-2-1.65c-1.29-.57-3.31.5-4.21,2a9.91,9.91,0,0,0-1,5.06,74.07,74.07,0,0,0,.4,8.16,9.58,9.58,0,0,0,1,3.74,3.12,3.12,0,0,0,5.91-.5A10.63,10.63,0,0,0,92.84,322.8Z" style="fill:#e0e0e0"></path><path d="M149.68,319.83c0,.14-10.58.26-23.63.26s-23.63-.12-23.63-.26,10.58-.26,23.63-.26S149.68,319.69,149.68,319.83Z" style="fill:#e0e0e0"></path><polygon points="83.03 303.5 82.76 279.43 95.86 279.43 96.32 303.5 83.03 303.5" style="fill:#f5f5f5"></polygon><path d="M95.09,283.71A36.37,36.37,0,0,1,89,284a36.37,36.37,0,0,1-6.09-.26,36.37,36.37,0,0,1,6.09-.26A36.37,36.37,0,0,1,95.09,283.71Z" style="fill:#e0e0e0"></path><path d="M95.09,287.43a36.37,36.37,0,0,1-6.09.26,36.37,36.37,0,0,1-6.09-.26,35.14,35.14,0,0,1,6.09-.26A35.14,35.14,0,0,1,95.09,287.43Z" style="fill:#e0e0e0"></path><path d="M95.09,291.14a35.14,35.14,0,0,1-6.09.26,35.14,35.14,0,0,1-6.09-.26,36.37,36.37,0,0,1,6.09-.26A36.37,36.37,0,0,1,95.09,291.14Z" style="fill:#e0e0e0"></path><path d="M95.09,294.86a36.37,36.37,0,0,1-6.09.26,36.37,36.37,0,0,1-6.09-.26A35.14,35.14,0,0,1,89,294.6,35.14,35.14,0,0,1,95.09,294.86Z" style="fill:#e0e0e0"></path><path d="M95.09,298.57a35.14,35.14,0,0,1-6.09.26,35.14,35.14,0,0,1-6.09-.26,36.37,36.37,0,0,1,6.09-.26A36.37,36.37,0,0,1,95.09,298.57Z" style="fill:#e0e0e0"></path><path d="M81.62,278.63H226.87c1.79,8,1.54,16.74,0,26H82.24v-1.77h8.84a4.17,4.17,0,0,0,4.17-4.17v-14.4a4.17,4.17,0,0,0-4.17-4.18H81.62Z" style="fill:#FF725E"></path><path d="M116.4,291.82h2.43a.62.62,0,0,1,.26.06.5.5,0,0,1,.26.46.61.61,0,0,1,0,.15c0,.21-.11.41-.17.62a6.83,6.83,0,0,1-1.51,2.75,2.87,2.87,0,0,1-2.07,1.06,1.42,1.42,0,0,1-.29,0,2.32,2.32,0,0,1-1.65-1.19,5.47,5.47,0,0,1-.72-2.92,7.81,7.81,0,0,1,.28-2.07,7,7,0,0,1,1.44-2.81,2.9,2.9,0,0,1,2.18-1.16,2,2,0,0,1,.92.21,2.94,2.94,0,0,1,1.42,1.76.54.54,0,0,1,.06.25.52.52,0,0,1-.08.26.49.49,0,0,1-.45.26l-.16,0a.48.48,0,0,1-.33-.33l0,0a2.25,2.25,0,0,0-.29-.58,1.38,1.38,0,0,0-1.16-.69,1.35,1.35,0,0,0-.8.3,4.18,4.18,0,0,0-1.32,1.9,7,7,0,0,0-.58,2.73,4.87,4.87,0,0,0,.42,2.15,1.42,1.42,0,0,0,1.26,1,1.71,1.71,0,0,0,1.18-.71,6.53,6.53,0,0,0,1.24-2.25c-1.11,0-1.69,0-1.74,0-.38-.06-.57-.25-.58-.58a.78.78,0,0,1,0-.18A.55.55,0,0,1,116.4,291.82Z" style="fill:#fafafa"></path><path d="M124.65,287.09a1.07,1.07,0,0,1,.06.17q.17.54,1.71,9a.35.35,0,0,1,0,.13.68.68,0,0,1-.07.27.48.48,0,0,1-.44.26h-.08a.48.48,0,0,1-.4-.36l-.58-3h-3l-1.44,3,0,.1a.58.58,0,0,1-.45.25.49.49,0,0,1-.29-.08.5.5,0,0,1-.24-.44.42.42,0,0,1,0-.15l.44-1q3.14-6.84,3.75-8.07a.55.55,0,0,1,1-.1Zm-.65,2-1.62,3.39h2.28Z" style="fill:#fafafa"></path><path d="M132.75,296.92h-4.38a.48.48,0,0,1-.28-.08.77.77,0,0,1-.25-.55h0c0-.18.41-3.17,1.21-9l0-.19a.48.48,0,0,1,.47-.32.48.48,0,0,1,.24.06.49.49,0,0,1,.27.46c0,.4-.13,1.22-.29,2.46-.5,3.83-.77,5.85-.79,6.06h3.72a.82.82,0,0,1,.28,0,.52.52,0,0,1,.31.66A.59.59,0,0,1,132.75,296.92Z" style="fill:#fafafa"></path><path d="M138.73,287.09a.54.54,0,0,1,.07.17q.15.54,1.71,9a.69.69,0,0,1,0,.13.54.54,0,0,1-.07.27.47.47,0,0,1-.43.26h-.09a.49.49,0,0,1-.4-.36l-.57-3h-3l-1.43,3-.05.1a.58.58,0,0,1-.45.25.48.48,0,0,1-.28-.08.5.5,0,0,1-.24-.44.4.4,0,0,1,0-.15q.13-.31.45-1c2.09-4.56,3.33-7.25,3.74-8.07a.56.56,0,0,1,.51-.36A.52.52,0,0,1,138.73,287.09Zm-.65,2-1.61,3.39h2.28Z" style="fill:#fafafa"></path><path d="M145.71,292.25c.34.95.6,1.68.79,2.19.45,1.25.68,1.91.68,2a.43.43,0,0,1-.09.26.49.49,0,0,1-.43.24.48.48,0,0,1-.44-.35l-.08-.22q-.36-.81-1.17-3.09l-2.48,3.39a.57.57,0,0,1-.46.27.54.54,0,0,1-.27-.07.47.47,0,0,1-.25-.43.34.34,0,0,1,0-.11,1.28,1.28,0,0,1,.26-.43q1.25-1.61,2.75-3.83c-.11-.29-.21-.57-.3-.83-.93-2.49-1.4-3.78-1.4-3.87a.48.48,0,0,1,.07-.26.43.43,0,0,1,.42-.26.52.52,0,0,1,.49.28l1.46,3.95,2.92-4a.6.6,0,0,1,.47-.25.46.46,0,0,1,.23.06.49.49,0,0,1,.26.47.79.79,0,0,1-.05.24Z" style="fill:#fafafa"></path><path d="M156.54,286.86a.48.48,0,0,1,.24.06.49.49,0,0,1,.28.45c-.71,5.66-1.11,8.71-1.18,9.17a5.68,5.68,0,0,1-.94,2.39,3.42,3.42,0,0,1-2.91,1.43,3.56,3.56,0,0,1-1.4-.37,3.12,3.12,0,0,1-1.54-1.36.54.54,0,0,1-.06-.25.48.48,0,0,1,.07-.26.5.5,0,0,1,.45-.26.49.49,0,0,1,.4.21,2.82,2.82,0,0,0,2.24,1.28,2.26,2.26,0,0,0,1.74-.88,4.86,4.86,0,0,0,1-2.76,2.58,2.58,0,0,1-2.21,1.2l-.29,0a2.33,2.33,0,0,1-1.67-1.19,5.47,5.47,0,0,1-.73-2.92c0-.53,0-1.08.08-1.64.08-.89.28-2.14.59-3.77a.54.54,0,0,1,0-.15.49.49,0,0,1,.47-.36.48.48,0,0,1,.26.07.47.47,0,0,1,.26.42,19.28,19.28,0,0,1-.24,2,28,28,0,0,0-.35,3.05,6.13,6.13,0,0,0,.39,2.38c.3.71.73,1.07,1.3,1.07l.18,0a2.4,2.4,0,0,0,1.3-1.05,6.46,6.46,0,0,0,1.09-2.41l.66-5a.62.62,0,0,1,.07-.23A.46.46,0,0,1,156.54,286.86Z" style="fill:#fafafa"></path><path d="M221.85,305.15c-.14,0-.26-6-.26-13.35s.12-13.35.26-13.35.26,6,.26,13.35S222,305.15,221.85,305.15Z" style="fill:#263238"></path><path d="M103,305.15c-.14,0-.26-6-.26-13.35s.12-13.35.26-13.35.26,6,.26,13.35S103.14,305.15,103,305.15Z" style="fill:#263238"></path><path d="M224.4,305.15c-.14,0-.26-6-.26-13.35s.12-13.35.26-13.35.26,6,.26,13.35S224.55,305.15,224.4,305.15Z" style="fill:#263238"></path><path d="M100.62,305.15c-.15,0-.26-6-.26-13.35s.11-13.35.26-13.35.26,6,.26,13.35S100.76,305.15,100.62,305.15Z" style="fill:#263238"></path><path d="M186.64,282.85l0-.05L202,295.19l.14.11-.17,0-2,.54-13,3.4h-.05l-11.75-5-3.33-1.42-.87-.38-.23-.1-.07,0,.08,0,.23.09.88.36,3.35,1.39,11.77,4.92h-.05l13-3.42,2-.54,0,.15L186.53,282.9l0,0v0" style="fill:#e0e0e0"></path><polygon points="200.58 293.26 201.41 294.05 202.54 293.8 202.05 294.84 202.62 295.84 201.48 295.69 200.72 296.55 200.5 295.42 199.45 294.95 200.46 294.4 200.58 293.26" style="fill:#e0e0e0"></polygon><polygon points="185.85 298.14 186.42 298.62 187.14 298.42 186.86 299.11 187.28 299.73 186.53 299.68 186.07 300.26 185.89 299.54 185.19 299.28 185.82 298.88 185.85 298.14" style="fill:#e0e0e0"></polygon><polygon points="169.59 291.47 170.5 291.52 171.06 290.81 171.29 291.69 172.15 292 171.38 292.49 171.34 293.4 170.64 292.82 169.76 293.07 170.09 292.23 169.59 291.47" style="fill:#e0e0e0"></polygon><polygon points="207.46 283.04 208.37 283.1 208.93 282.38 209.16 283.27 210.02 283.58 209.25 284.07 209.21 284.98 208.51 284.4 207.63 284.65 207.97 283.8 207.46 283.04" style="fill:#e0e0e0"></polygon><polygon points="185.89 282.44 186.47 282.48 186.83 282.02 186.98 282.59 187.53 282.79 187.03 283.1 187.01 283.68 186.56 283.31 186 283.47 186.22 282.93 185.89 282.44" style="fill:#e0e0e0"></polygon><path d="M208.74,283.68c0,.06-5-.11-11.09-.37s-11.09-.52-11.08-.58,5,.11,11.09.37S208.74,283.62,208.74,283.68Z" style="fill:#e0e0e0"></path><path d="M214.32,278.56H67c-1.93-4.37-2.4-8.53,0-12.26H214.32A14.25,14.25,0,0,1,214.32,278.56Z" style="fill:#455a64"></path><rect x="97.51" y="269.81" width="79.81" height="4.46" style="fill:#ebebeb"></rect><path d="M72.66,278.63a4.35,4.35,0,0,1-1.16-1.49,10.69,10.69,0,0,1-1.34-4.35,10.9,10.9,0,0,1,.56-4.51,4.34,4.34,0,0,1,.89-1.67,16.71,16.71,0,0,1-.53,1.78,12.34,12.34,0,0,0-.4,4.36A12.66,12.66,0,0,0,71.83,277,14.55,14.55,0,0,1,72.66,278.63Z" style="fill:#e0e0e0"></path><path d="M75.85,278.63a4.35,4.35,0,0,1-1.16-1.49,10.69,10.69,0,0,1-1.34-4.35,10.9,10.9,0,0,1,.56-4.51,4.42,4.42,0,0,1,.88-1.67,14.22,14.22,0,0,1-.53,1.78,12.61,12.61,0,0,0-.39,4.36A12.43,12.43,0,0,0,75,277,17,17,0,0,1,75.85,278.63Z" style="fill:#e0e0e0"></path><path d="M208.36,278.34a18.41,18.41,0,0,0,.07-12,12.57,12.57,0,0,1-.07,12Z" style="fill:#e0e0e0"></path><path d="M205.61,278.31c-.15,0,.47-2.62.45-5.87s-.62-5.83-.46-5.87a14.47,14.47,0,0,1,1,5.87A14.32,14.32,0,0,1,205.61,278.31Z" style="fill:#e0e0e0"></path></g></svg>
